<?xml version="1.0" encoding="utf-8"?>
<?xml-stylesheet type="text/xsl" href="rss1.xsl"?>
<rss version="2.0" xmlns:atom="http://www.w3.org/2005/Atom" xmlns:content="http://purl.org/rss/1.0/modules/content/" xmlns:dc="http://purl.org/dc/elements/1.1/" xmlns:media="http://search.yahoo.com/mrss/">
<channel>
 <title>Getty</title>
 <link>http://www.gettyimg.com/</link>
 <atom:link href="http://www.gettyimg.com/" rel="self" type="application/rss+xml" />

 
                <item>
                <title><![CDATA[【HD Live Performances】HDTV - Arctic Monkeys - Live @ Glastonbury 2023 HDTV H264 1080i DD2.0-ilya2129]]></title>
                <link><![CDATA[https://sharemania.us/threads/arctic-monkeys-live-glastonbury-2023-hdtv-h264-1080i-dd2-0-ilya2129.223288/]]></link>
                <description><![CDATA[<article>
<blockquote class="messageText SelectQuoteContainer ugc baseHtml">
<div style="text-align: center"><img src="https://i122.fastpic.org/big/2023/0623/b4/b37c6294354538a70aac338bdf3af5b4.png?r=1" class="bbCodeImage LbImage" alt="[​IMG]" data-url="https://i122.fastpic.org/big/2023/0623/b4/b37c6294354538a70aac338bdf3af5b4.png?r=1" style=""><br>
<br>
<a href="https://postimg.cc/BXHt7mQ0" target="_blank" class="externalLink" rel="nofollow"><img src="https://i.postimg.cc/BXHt7mQ0/vlcsnap-2023-06-24-16h47m29s966.png" class="bbCodeImage LbImage" alt="[​IMG]" data-url="https://i.postimg.cc/BXHt7mQ0/vlcsnap-2023-06-24-16h47m29s966.png"></a> <a href="https://postimg.cc/062QQxGk" target="_blank" class="externalLink" rel="nofollow"><img src="https://i.postimg.cc/062QQxGk/vlcsnap-2023-06-24-16h47m33s996.png" class="bbCodeImage LbImage" alt="[​IMG]" data-url="https://i.postimg.cc/062QQxGk/vlcsnap-2023-06-24-16h47m33s996.png"></a> <a href="https://postimg.cc/phmLfZ13" target="_blank" class="externalLink" rel="nofollow"><img src="https://i.postimg.cc/phmLfZ13/vlcsnap-2023-06-24-16h47m36s558.png" class="bbCodeImage LbImage" alt="[​IMG]" data-url="https://i.postimg.cc/phmLfZ13/vlcsnap-2023-06-24-16h47m36s558.png"></a> <a href="https://postimg.cc/5XmybjCK" target="_blank" class="externalLink" rel="nofollow"><img src="https://i.postimg.cc/5XmybjCK/vlcsnap-2023-06-24-16h47m38s524.png" class="bbCodeImage LbImage" alt="[​IMG]" data-url="https://i.postimg.cc/5XmybjCK/vlcsnap-2023-06-24-16h47m38s524.png"></a> <a href="https://postimg.cc/Rqn0qgtH" target="_blank" class="externalLink" rel="nofollow"><img src="https://i.postimg.cc/Rqn0qgtH/vlcsnap-2023-06-24-16h47m40s749.png" class="bbCodeImage LbImage" alt="[​IMG]" data-url="https://i.postimg.cc/Rqn0qgtH/vlcsnap-2023-06-24-16h47m40s749.png"></a> <a href="https://postimg.cc/5Qv9GtJ3" target="_blank" class="externalLink" rel="nofollow"><img src="https://i.postimg.cc/5Qv9GtJ3/vlcsnap-2023-06-24-16h47m43s564.png" class="bbCodeImage LbImage" alt="[​IMG]" data-url="https://i.postimg.cc/5Qv9GtJ3/vlcsnap-2023-06-24-16h47m43s564.png"></a> <br>
<br>
<i><br>
Sculptures of Anything Goes<br>
Brianstorm<br>
Snap Out of It<br>
Don't Sit Down 'Cause I've Moved Your Chair<br>
Crying Lightning<br>
Teddy Picker<br>
Cornerstone (Followed by Piano Interlude)<br>
Why'd You Only Call Me When You're High?<br>
Arabella (Black Sabbath's "War Pigs" outro.)<br>
Four Out of Five<br>
Pretty Visitors (Key change in the outro)<br>
Fluorescent Adolescent<br>
Perfect Sense<br>
Do I Wanna Know?<br>
Mardy Bum<br>
There'd Better Be a Mirrorball<br>
505 (New arrangement)<br>
Body Paint (Extended outro)<br>
Encore:<br>
I Wanna Be Yours (John Cooper Clarke cover)<br>
I Bet You Look Good on the Dancefloor<br>
R U Mine?<br>
</i><br>
​</div>
<div class="bbCodeBlock bbCodeCode">
<div class="type">Code:</div>
<pre>General
ID                                       : 1 (0x1)
Complete name                            : D:\Arctic Monkeys - Live @ Glastonbury 2023 HDTV H264 1080i DD2.0-ilya2129.ts
Format                                   : MPEG-TS
File size                                : 4.96 GiB
Duration                                 : 1 h 41 min
Overall bit rate mode                    : Variable
Overall bit rate                         : 6 980 kb/s
Frame rate                               : 25.000 FPS

Video
ID                                       : 302 (0x12E)
Menu ID                                  : 1 (0x1)
Format                                   : AVC
Format/Info                              : Advanced Video Codec
Format profile                           : High@L4
Format settings                          : CABAC / 4 Ref Frames
Format settings, CABAC                   : Yes
Format settings, Reference frames        : 4 frames
Codec ID                                 : 27
Duration                                 : 1 h 41 min
Bit rate                                 : 6 441 kb/s
Width                                    : 1 920 pixels
Height                                   : 1 080 pixels
Display aspect ratio                     : 16:9
Frame rate                               : 25.000 FPS
Standard                                 : Component
Color space                              : YUV
Chroma subsampling                       : 4:2:0
Bit depth                                : 8 bits
Scan type                                : MBAFF
Scan type, store method                  : Interleaved fields
Scan order                               : Top Field First
Bits/(Pixel*Frame)                       : 0.124
Stream size                              : 4.58 GiB (92%)
Color range                              : Limited
Color primaries                          : BT.709
Transfer characteristics                 : BT.709
Matrix coefficients                      : BT.709

Audio
ID                                       : 303 (0x12F)
Menu ID                                  : 1 (0x1)
Format                                   : AC-3
Format/Info                              : Audio Coding 3
Commercial name                          : Dolby Digital
Codec ID                                 : 6
Duration                                 : 1 h 41 min
Bit rate mode                            : Constant
Bit rate                                 : 192 kb/s
Channel(s)                               : 2 channels
Channel layout                           : L R
Sampling rate                            : 48.0 kHz
Frame rate                               : 31.250 FPS (1536 SPF)
Compression mode                         : Lossy
Delay relative to video                  : -160 ms
Stream size                              : 140 MiB (3%)
Language                                 : English
Service kind                             : Complete Main

Text #1
ID                                       : 310 (0x136)-888
Menu ID                                  : 1 (0x1)
Format                                   : Teletext Subtitle
Language                                 : English
Language, more info                      : For hearing impaired people

Text #2
ID                                       : 2403 (0x963)
Menu ID                                  : 1 (0x1)
Format                                   : DVB Subtitle
Codec ID                                 : 6
Duration                                 : 1 h 41 min
Delay relative to video                  : -159 ms
Language                                 : English

</pre>
</div>
<div class="bbCodeBlock bbCodeVfcHH HiddenContent">
<div class="attribution type">Hidden Content:</div>
<blockquote>You must reply before you can see the hidden data contained here.</blockquote>
</div>
<div class="messageTextEndMarker">&nbsp;</div>
</blockquote>
</article>]]></description>
                <author><![CDATA[ilya2129]]></author>
                </item>

                
                <item>
                <title><![CDATA[【Cinema Center】SERIES - The Winchesters 2022 HMAX WEB-DL 1080p AVC DD+5.1 [ENGLISH/LATIN AMERICAN]]]></title>
                <link><![CDATA[https://sharemania.us/threads/the-winchesters-2022-hmax-web-dl-1080p-avc-dd-5-1-english-latin-american.223289/]]></link>
                <description><![CDATA[<article>
<blockquote class="messageText SelectQuoteContainer ugc baseHtml">
<img src="https://www.themoviedb.org/t/p/original/39nRj32vdJgOfxxvFfBC5dBhiIV.jpg" class="bbCodeImage LbImage" alt="[​IMG]" data-url="https://www.themoviedb.org/t/p/original/39nRj32vdJgOfxxvFfBC5dBhiIV.jpg" style=""> <br>
<br>
<b>Extracted by me from HBO MAX</b><br>
<br>
<b>VIDEO:</b> 1080p FULLHD H64<br>
<br>
<b>AUDIO:</b> EAC3 5.1 ENGLISH AND LATIN AMERICAN<br>
<br>
<b>SUBS:</b> ENGLISH, LATIN AMERICAN<br>
<br>
<b>
<div class="bbCodeBlock bbCodeVfcHH HiddenContent">
<div class="attribution type">Hidden Content:</div>
<blockquote>You must reply before you can see the hidden data contained here.</blockquote>
</div></b>
<div class="messageTextEndMarker">&nbsp;</div>
</blockquote>
</article>]]></description>
                <author><![CDATA[alrl]]></author>
                </item>

                </channel></rss>